<?xml version="1.0" encoding="UTF-8" standalone="no"?>
<!-- Created with Inkscape (http://www.inkscape.org/) -->

<svg
   id="svg3795"
   viewBox="0 0 79.999999 80.000003"
   version="1.1"
   width="80"
   height="80"
   sodipodi:docname="icono_nav.svg"
   inkscape:version="1.2.1 (9c6d41e410, 2022-07-14)"
   xmlns:inkscape="http://www.inkscape.org/namespaces/inkscape"
   xmlns:sodipodi="http://sodipodi.sourceforge.net/DTD/sodipodi-0.dtd"
   xmlns="http://www.w3.org/2000/svg"
   xmlns:svg="http://www.w3.org/2000/svg"
   xmlns:rdf="http://www.w3.org/1999/02/22-rdf-syntax-ns#"
   xmlns:cc="http://creativecommons.org/ns#"
   xmlns:dc="http://purl.org/dc/elements/1.1/">
  <sodipodi:namedview
     id="namedview14"
     pagecolor="#ffffff"
     bordercolor="#666666"
     borderopacity="1.0"
     inkscape:showpageshadow="2"
     inkscape:pageopacity="0.0"
     inkscape:pagecheckerboard="0"
     inkscape:deskcolor="#d1d1d1"
     showgrid="false"
     inkscape:zoom="5.8628044"
     inkscape:cx="94.408744"
     inkscape:cy="35.307335"
     inkscape:window-width="1920"
     inkscape:window-height="974"
     inkscape:window-x="-11"
     inkscape:window-y="-11"
     inkscape:window-maximized="1"
     inkscape:current-layer="g2031" />
  <defs
     id="defs112" />
  <g
     id="layer1"
     transform="translate(-230.85513,-322.62953)">
    <g
       id="g1753"
       transform="matrix(1.7825983,0,0,1.7825983,-163.51737,-402.28226)">
      <g
         id="g2031"
         transform="matrix(0.57839033,0,0,0.47772046,80.786996,206.57251)">
        <path
           id="path6899"
           style="color:#000000;fill:#5c4000;fill-opacity:1;stroke-width:0.444671"
           d="m 283.02851,424.6499 c -0.37542,0.0336 -1.00417,0.37095 -1.25101,0.20701 -0.30371,-0.20178 0.18936,0.8864 -0.13433,0.67034 -0.16185,-0.10802 -0.25615,1.41295 -0.0882,2.37089 0.16802,0.95794 0.13242,1.85518 -0.24768,1.86809 -0.38012,0.0129 0.87836,1.55292 -0.48275,0.6408 -0.1901,-0.12738 -0.31605,-0.21047 -0.4114,-0.27111 0.0718,0.0234 0.10081,-0.007 -0.0546,-0.19717 -0.24862,-0.30461 -0.17866,-0.26274 -0.15532,-0.25137 -0.0196,-0.0234 -0.11301,-0.12282 -0.43659,-0.44362 -0.87614,-0.86856 -3.25489,-3.30536 -2.9806,-2.8293 0.27433,0.47604 -1.40429,-0.97636 -2.3341,-1.50339 -0.0661,-0.0375 -0.0957,-0.057 -0.13852,-0.0837 0.0185,0.0776 -0.0846,0.16338 -0.57091,0.17744 -0.67333,0.0194 -0.3107,1.00704 0.0252,1.67588 -0.0481,-0.0775 -0.0909,-0.14606 -0.15112,-0.24152 -1.58912,-2.51756 0.49945,2.59018 0.5835,3.44545 0.0841,0.85526 0.1623,2.23669 0.21829,3.32219 0.056,1.08548 -0.89543,7.63136 -1.00749,8.35459 -0.11209,0.72363 0.0524,1.1184 -0.59192,1.6118 -0.64438,0.49341 -1.34273,1.31379 -1.93108,1.97165 -0.58835,0.65789 -3.10831,2.96138 -4.08884,3.94822 -0.98054,0.98681 -2.21456,2.3058 -2.77488,3.29266 -0.56032,0.98681 -0.95132,1.80487 -1.17542,2.62718 -0.22413,0.82234 -1.0382,3.38891 -1.15023,4.04677 -0.11206,0.65791 -1.1762,2.30251 -1.79254,3.32223 -0.61633,1.01971 -2.43817,2.53467 -3.27861,3.06098 -0.84043,0.52631 -2.94038,2.2369 -3.92092,3.12507 -0.98053,0.88816 -2.57593,2.00434 -2.80003,2.1688 -0.22411,0.16448 -2.43977,1.77751 -3.05614,2.04064 -0.61634,0.26315 -1.59885,1.13251 -1.6792,1.28154 -0.0803,0.14907 0.001,1.42663 0.23929,2.12443 0.23771,0.6978 0.93052,1.83745 1.18803,2.23284 0.25753,0.39542 0.59651,0.43993 0.81442,0.62601 0.2179,0.18606 0.33644,0.87237 1.12087,2.58286 0.78445,1.71048 2.24103,2.3688 2.91339,2.82926 0.67239,0.46051 2.07072,0.39433 2.35088,0.39433 0.28014,0 0.16903,0.0652 0.4492,0.59151 0.28015,0.52632 1.95992,1.51494 2.46422,1.44918 0.50426,-0.0659 4.09184,-1.18433 5.26833,-1.51328 1.17665,-0.32894 7.34234,-2.65801 9.24399,-2.8441 1.90173,-0.18608 3.48428,0.92788 4.75208,1.85826 1.26784,0.93038 3.17154,3.53907 4.12258,4.28336 0.95086,0.74434 0.72188,-0.69896 2.37603,0.18239 1.65421,0.88132 4.59368,4.2821 6.01972,7.07339 0.84812,1.65974 1.4878,6.54723 3.08971,11.13482 15.75041,-6.64552 26.98469,-24.31408 26.98469,-45.12567 0,-2.43358 -0.15695,-4.82176 -0.45337,-7.15723 -5.43987,-2.83438 -13.94929,-7.18422 -14.00428,-7.21122 -0.0696,-0.0339 -0.17206,-0.0922 -0.30646,-0.1725 -0.13434,-0.0804 -11.45096,-13.4197 -11.64096,-13.54016 -0.19017,-0.12037 -4.91828,-5.97287 -5.15507,-6.12706 -0.23695,-0.15391 -3.49495,-2.86511 -3.76978,-3.04619 -0.0515,-0.0339 -0.12326,-0.0423 -0.2099,-0.0345 z m -8.71502,0.17744 c -0.0291,-0.12201 -0.34214,-0.21463 0,0 z" />
        <g
           id="g1745"
           transform="translate(25.172709,-70.685427)" />
      </g>
    </g>
  </g>
  <metadata
     id="metadata109">
    <rdf:RDF>
      <cc:Work>
        <dc:format>image/svg+xml</dc:format>
        <dc:type
           rdf:resource="http://purl.org/dc/dcmitype/StillImage" />
        <cc:license
           rdf:resource="http://creativecommons.org/publicdomain/zero/1.0/" />
        <dc:publisher>
          <cc:Agent
             rdf:about="http://openclipart.org/">
            <dc:title>Openclipart</dc:title>
          </cc:Agent>
        </dc:publisher>
        <dc:date>2011-12-27T10:10:06</dc:date>
        <dc:description>Dog Head profile</dc:description>
        <dc:source>https://openclipart.org/detail/166603/dog-head-profile-by-printerkiller</dc:source>
        <dc:creator>
          <cc:Agent>
            <dc:title>PrinterKiller</dc:title>
          </cc:Agent>
        </dc:creator>
        <dc:subject>
          <rdf:Bag>
            <rdf:li>Dog Head profile silhouette</rdf:li>
          </rdf:Bag>
        </dc:subject>
      </cc:Work>
      <cc:License
         rdf:about="http://creativecommons.org/publicdomain/zero/1.0/">
        <cc:permits
           rdf:resource="http://creativecommons.org/ns#Reproduction" />
        <cc:permits
           rdf:resource="http://creativecommons.org/ns#Distribution" />
        <cc:permits
           rdf:resource="http://creativecommons.org/ns#DerivativeWorks" />
      </cc:License>
    </rdf:RDF>
  </metadata>
</svg>
