<svg xmlns="http://www.w3.org/2000/svg" xmlns:xlink="http://www.w3.org/1999/xlink" version="1.1" width="256" height="256" viewBox="0 0 256 256" xml:space="preserve">

<defs>
</defs>
<g style="stroke: none; stroke-width: 0; stroke-dasharray: none; stroke-linecap: butt; stroke-linejoin: miter; stroke-miterlimit: 10; fill: none; fill-rule: nonzero; opacity: 1;" transform="translate(1.4065934065934016 1.4065934065934016) scale(2.81 2.81)" >
	<path d="M 88.218 49.38 c 2.376 -2.455 2.376 -6.304 0 -8.76 l -6.33 -6.543 c -0.497 -0.514 -0.725 -1.214 -0.625 -1.921 l 1.275 -9.015 c 0.478 -3.383 -1.783 -6.496 -5.148 -7.087 l -8.968 -1.573 c -0.704 -0.124 -1.3 -0.557 -1.634 -1.188 L 62.52 5.251 c -1.601 -3.02 -5.261 -4.209 -8.33 -2.707 l -8.18 3.998 c -0.642 0.313 -1.379 0.313 -2.021 0 l -8.179 -3.998 c -3.07 -1.502 -6.73 -0.312 -8.331 2.707 l -4.267 8.043 c -0.335 0.631 -0.931 1.064 -1.635 1.188 l -8.967 1.573 c -3.365 0.59 -5.627 3.703 -5.149 7.087 l 1.275 9.015 c 0.101 0.707 -0.127 1.408 -0.624 1.921 l -6.33 6.543 c -2.377 2.456 -2.377 6.305 0 8.76 l 6.331 6.543 c 0.489 0.506 0.722 1.224 0.623 1.921 l -1.275 9.015 c -0.478 3.383 1.783 6.497 5.149 7.087 l 8.968 1.573 c 0.703 0.123 1.299 0.556 1.634 1.187 l 4.267 8.043 c 1.603 3.019 5.262 4.21 8.331 2.706 l 8.18 -3.998 c 0.64 -0.314 1.377 -0.314 2.02 0 l 8.18 3.998 c 0.898 0.439 1.847 0.648 2.781 0.648 c 2.254 -0.001 4.417 -1.22 5.549 -3.355 l 4.269 -8.044 c 0.334 -0.631 0.928 -1.063 1.633 -1.186 l 8.968 -1.573 c 3.365 -0.592 5.627 -3.704 5.148 -7.087 l -1.275 -9.014 c -0.101 -0.709 0.128 -1.409 0.625 -1.922 L 88.218 49.38 z" style="stroke: none; stroke-width: 1; stroke-dasharray: none; stroke-linecap: butt; stroke-linejoin: miter; stroke-miterlimit: 10; fill: rgb(201,174,36); fill-rule: nonzero; opacity: 1;" transform=" matrix(1 0 0 1 0 0) " stroke-linecap="round" />
	<path d="M 25.351 41.503 h -2.607 v -3.129 h 5.685 c 1.104 0 2 -0.895 2 -2 s -0.895 -2 -2 -2 h -7.684 c -1.104 0 -2 0.895 -2 2 v 7.128 c 0 1.104 0.895 2 2 2 h 4.606 c 1.667 0 3.024 1.356 3.024 3.024 s -1.357 3.024 -3.024 3.024 h -4.606 c -1.104 0 -2 0.895 -2 2 s 0.895 2 2 2 h 4.606 c 3.872 0 7.023 -3.151 7.023 -7.023 S 29.223 41.503 25.351 41.503 z" style="stroke: none; stroke-width: 1; stroke-dasharray: none; stroke-linecap: butt; stroke-linejoin: miter; stroke-miterlimit: 10; fill: rgb(255,255,255); fill-rule: nonzero; opacity: 1;" transform=" matrix(1 0 0 1 0 0) " stroke-linecap="round" />
	<path d="M 41.74 34.375 c -3.963 0 -7.187 3.224 -7.187 7.186 v 6.8 c 0 3.963 3.224 7.187 7.187 7.187 c 3.962 0 7.186 -3.224 7.186 -7.187 v -6.8 C 48.926 37.599 45.702 34.375 41.74 34.375 z M 44.927 48.362 c 0 1.757 -1.429 3.188 -3.187 3.188 c -1.758 0 -3.188 -1.43 -3.188 -3.188 v -6.8 c 0 -1.757 1.43 -3.187 3.188 -3.187 c 1.757 0 3.187 1.43 3.187 3.187 V 48.362 z" style="stroke: none; stroke-width: 1; stroke-dasharray: none; stroke-linecap: butt; stroke-linejoin: miter; stroke-miterlimit: 10; fill: rgb(255,255,255); fill-rule: nonzero; opacity: 1;" transform=" matrix(1 0 0 1 0 0) " stroke-linecap="round" />
	<path d="M 68.019 35.68 c -0.916 -0.619 -2.158 -0.379 -2.777 0.535 l -11.028 16.29 c -0.619 0.915 -0.38 2.158 0.535 2.777 c 0.344 0.232 0.733 0.344 1.119 0.344 c 0.641 0 1.271 -0.308 1.658 -0.879 l 11.028 -16.29 C 69.173 37.542 68.934 36.299 68.019 35.68 z" style="stroke: none; stroke-width: 1; stroke-dasharray: none; stroke-linecap: butt; stroke-linejoin: miter; stroke-miterlimit: 10; fill: rgb(255,255,255); fill-rule: nonzero; opacity: 1;" transform=" matrix(1 0 0 1 0 0) " stroke-linecap="round" />
	<circle cx="57.259" cy="38.229" r="2.999" style="stroke: none; stroke-width: 1; stroke-dasharray: none; stroke-linecap: butt; stroke-linejoin: miter; stroke-miterlimit: 10; fill: rgb(255,255,255); fill-rule: nonzero; opacity: 1;" transform="  matrix(1 0 0 1 0 0) "/>
	<circle cx="66.259" cy="52.599000000000004" r="2.999" style="stroke: none; stroke-width: 1; stroke-dasharray: none; stroke-linecap: butt; stroke-linejoin: miter; stroke-miterlimit: 10; fill: rgb(255,255,255); fill-rule: nonzero; opacity: 1;" transform="  matrix(1 0 0 1 0 0) "/>
</g>
</svg>